<?xml version="1.0" encoding="UTF-8"?>
<svg viewBox="0 0 79 93" version="1.1" xmlns="http://www.w3.org/2000/svg" xmlns:xlink="http://www.w3.org/1999/xlink">
    <!-- Generator: Sketch 53.2 (72643) - https://sketchapp.com -->
    <title>Artboard</title>
    <desc>Created with Sketch.</desc>
    <g id="Artboard" stroke="none" stroke-width="1" fill="none" fill-rule="evenodd">
        <g id="nacho" transform="translate(0.000000, -1.000000)" fill="#000000" fill-rule="nonzero">
            <g id="a-link" transform="translate(39.230890, 47.372140) scale(-1, 1) rotate(-180.000000) translate(-39.230890, -47.372140) translate(0.222190, 0.912340)">
                <g id="a">
                    <path d="M77.05314,33.3108 L44.53128,89.63235 C43.3917,91.6047 41.33169,92.83194 39.0087,92.83194 C36.72954,92.83194 34.66953,91.64853 33.48612,89.63235 L19.10988,64.73691 L0.96426,33.3108 C-0.17532,31.33845 -0.17532,28.9278 0.96426,26.95545 C1.88469,25.37757 3.37491,24.28182 5.12811,23.93118 C5.78556,23.79969 6.31152,23.2299 6.31152,22.52862 L6.31152,6.88131 C6.31152,3.33108 9.02898,0.30681 12.57921,0.13149 C16.34859,-0.04383 19.46052,2.93661 19.46052,6.70599 L19.46052,22.3533 C19.46052,23.14224 20.11797,23.75586 20.86308,23.75586 L20.86308,23.75586 C21.65202,23.75586 22.26564,23.09841 22.26564,22.3533 L22.26564,10.73835 C22.26564,7.0128 25.37757,3.98853 29.14695,4.16385 C32.69718,4.33917 35.41464,7.36344 35.41464,10.91367 L35.41464,22.30947 C35.41464,23.09841 36.07209,23.71203 36.8172,23.71203 L71.48673,23.71203 C73.76589,23.71203 75.8259,24.89544 76.96548,26.91162 C78.19272,28.9278 78.19272,31.33845 77.05314,33.3108 Z M31.07547,23.97501 L31.07547,10.86984 C31.07547,9.73026 30.2427,8.72217 29.10312,8.59068 C27.78822,8.45919 26.69247,9.51111 26.69247,10.78218 L26.69247,23.97501 C26.69247,26.298 24.80778,28.18269 22.48479,28.18269 L19.2852,28.18269 C16.96221,28.18269 15.07752,26.298 15.07752,23.97501 L15.07752,6.70599 C15.07752,5.47875 14.11326,4.51449 12.88602,4.51449 C11.65878,4.51449 10.69452,5.47875 10.69452,6.70599 L10.69452,23.97501 C10.69452,26.298 8.80983,28.18269 6.48684,28.18269 L6.48684,28.18269 C6.44301,28.18269 6.35535,28.18269 6.31152,28.18269 C5.39109,28.27035 4.95279,28.88397 4.77747,29.14695 C4.60215,29.45376 4.25151,30.2427 4.77747,31.1193 L21.0384,59.25816 L39.0087,28.13886 L35.28315,28.13886 C32.96016,28.18269 31.07547,26.298 31.07547,23.97501 Z" id="Shape"></path>
                </g>
            </g>
        </g>
    </g>
</svg>